<?xml version="1.0" encoding="UTF-8" standalone="no"?>
<svg
   xmlns="http://www.w3.org/2000/svg"
   viewBox="0 0 540 315"
   preserveAspectRatio="xMidYMid"
   version="1.1">

  <defs>
    <style type="text/css"><![CDATA[

        g#nodes > g > circle {
            fill-opacity: 1;
            stroke: #000;
            stroke-width: 2;
            stroke-opacity: 1;
        }

        g#c1 > circle {
            fill: #ffe6ba;
        }

        g#c2 > circle {
            fill: #e7ffe0;
        }

        g#c3 > circle {
            fill: #ffdbff;
        }

        g#c4 > circle {
            fill: #dee8ff;
        }

        g#c5 > circle {
            fill: #fff0a4;
        }

        g#c6 > circle {
            fill: #d8ffff;
        }

        g#nodes > g > circle.selected {
            fill: #fff;
        }

        g#edges > line {
            stroke: #000;
            stroke-opacity: 1;
            stroke-width: 2;
        }

    ]]></style>
  </defs>

  <rect x="0" y="0" width="100%" height="100%" style="fill:silver"/>

  <g id="edges">

    <line x1="249" y1="285" x2="289" y2="272" />
    <line x1="249" y1="285" x2="257" y2="245" />
    <line x1="249" y1="285" x2="215" y2="257" />

    <line x1="215" y1="257" x2="257" y2="245" />
    <line x1="215" y1="257" x2="208" y2="209" />

    <line x1="257" y1="245" x2="254" y2="207" />
    <line x1="257" y1="245" x2="289" y2="272" />
    <line x1="257" y1="245" x2="208" y2="209" />
    <line x1="257" y1="245" x2="303" y2="196" />

    <line x1="254" y1="207" x2="208" y2="209" />
    <line x1="254" y1="207" x2="303" y2="196" />
    <line x1="254" y1="207" x2="273" y2="164" />

    <line x1="208" y1="209" x2="273" y2="164" />
    <line x1="208" y1="209" x2="218" y2="160" />
    <line x1="208" y1="209" x2="116" y2="243" />

    <line x1="336" y1="152" x2="405" y2="163" />
    <line x1="336" y1="152" x2="354" y2="200" />
    <line x1="336" y1="152" x2="303" y2="196" />
    <line x1="336" y1="152" x2="371" y2="96"  />
    <line x1="336" y1="152" x2="300" y2="92"  />

    <line x1="405" y1="163" x2="354" y2="200" />
    <line x1="405" y1="163" x2="471" y2="149" />
    <line x1="405" y1="163" x2="396" y2="219" />
    <line x1="405" y1="163" x2="426" y2="105" />
    <line x1="405" y1="163" x2="371" y2="96"  />

    <line x1="354" y1="200" x2="303" y2="196" />
    <line x1="354" y1="200" x2="396" y2="219" />

    <line x1="471" y1="96"  x2="516" y2="66"  />
    <line x1="471" y1="96"  x2="471" y2="149" />
    <line x1="471" y1="96"  x2="426" y2="105" />
    <line x1="471" y1="96"  x2="457" y2="52"  />

    <line x1="518" y1="133" x2="516" y2="66"  />
    <line x1="518" y1="133" x2="471" y2="149" />

    <line x1="516" y1="66"  x2="471" y2="149" />
    <line x1="516" y1="66"  x2="457" y2="52"  />
    <line x1="516" y1="66"  x2="540" y2="66"  />

    <line x1="303" y1="196" x2="273" y2="164" />
    <line x1="303" y1="196" x2="300" y2="92"  />

    <line x1="471" y1="149" x2="426" y2="105" />

    <line x1="396" y1="219" x2="446" y2="226" />

    <line x1="426" y1="105" x2="371" y2="96"  />
    <line x1="426" y1="105" x2="457" y2="52"  />

    <line x1="371" y1="96"  x2="300" y2="92" />

    <line x1="495" y1="271" x2="485" y2="228" />
    <line x1="495" y1="271" x2="449" y2="267" />

    <line x1="446" y1="226" x2="485" y2="228" />
    <line x1="446" y1="226" x2="449" y2="267" />

    <line x1="485" y1="228" x2="449" y2="267" />

    <line x1="199" y1="129" x2="183" y2="93"  />
    <line x1="199" y1="129" x2="249" y2="125" />
    <line x1="199" y1="129" x2="238" y2="69"  />
    <line x1="199" y1="129" x2="218" y2="160" />

    <line x1="183" y1="93"  x2="238" y2="69"  />
    <line x1="183" y1="93"  x2="137" y2="47"  />

    <line x1="249" y1="125" x2="238" y2="69"  />
    <line x1="249" y1="125" x2="273" y2="164" />
    <line x1="249" y1="125" x2="300" y2="92"  />
    <line x1="249" y1="125" x2="218" y2="160" />

    <line x1="238" y1="69"  x2="300" y2="92"  />

    <line x1="273" y1="164" x2="300" y2="92"  />
    <line x1="273" y1="164" x2="218" y2="160" />

    <line x1="26"  y1="50"  x2="47"  y2="92"  />
    <line x1="26"  y1="50"  x2="76"  y2="54"  />
    <line x1="26"  y1="50"  x2="0"   y2="50"  />

    <line x1="47"  y1="92"  x2="76"  y2="54"  />
    <line x1="47"  y1="92"  x2="91"  y2="96"  />
    <line x1="47"  y1="92"  x2="66"  y2="127" />

    <line x1="83"  y1="164" x2="112" y2="130" />
    <line x1="83"  y1="164" x2="66"  y2="127" />
    <line x1="83"  y1="164" x2="92"  y2="206" />

    <line x1="112" y1="130" x2="91"  y2="96"  />
    <line x1="112" y1="130" x2="132" y2="97"  />
    <line x1="112" y1="130" x2="66"  y2="127" />

    <line x1="137" y1="47"  x2="76"  y2="54"  />
    <line x1="137" y1="47"  x2="91"  y2="96"  />
    <line x1="137" y1="47"  x2="132" y2="97"  />

    <line x1="76"  y1="54"  x2="91"  y2="96"  />

    <line x1="91"  y1="96"  x2="132" y2="97"  />
    <line x1="91"  y1="96"  x2="66"  y2="127" />

    <line x1="97"  y1="280" x2="116" y2="243" />
    <line x1="97"  y1="280" x2="76"  y2="246" />

    <line x1="116" y1="243" x2="76"  y2="246" />
    <line x1="116" y1="243" x2="92"  y2="206" />

    <line x1="76"  y1="246" x2="92"  y2="206" />

  </g>

  <g id="nodes">

    <g id="c1">
      <circle id="n10" cx="249" cy="285" r="15" />
      <circle id="n11" cx="215" cy="257" r="15" />
      <circle id="n12" cx="257" cy="245" r="15" />
      <circle id="n13" cx="254" cy="207" r="15" />
      <circle id="n14" cx="289" cy="272" r="10" />
      <circle id="n15" cx="208" cy="209" r="25" />
    </g>

    <g id="c2">
      <circle id="n20" cx="336" cy="152" r="25" />
      <circle id="n21" cx="405" cy="163" r="35" />
      <circle id="n22" cx="354" cy="200" r="15" />
      <circle id="n23" cx="471" cy="96"  r="19" />
      <circle id="n24" cx="518" cy="133" r="10" />
      <circle id="n25" cx="516" cy="66"  r="20" />
      <circle id="n26" cx="303" cy="196" r="15" />
      <circle id="n27" cx="471" cy="149" r="26" />
      <circle id="n28" cx="396" cy="219" r="15" />
      <circle id="n29" cx="426" cy="105" r="20" />
      <circle id="n2a" cx="371" cy="96"  r="29" />
      <circle id="n2b" cx="457" cy="52"  r="20" />
    </g>

    <g id="c3">
      <circle id="n30" cx="495" cy="271" r="20" />
      <circle id="n31" cx="446" cy="226" r="15" />
      <circle id="n32" cx="485" cy="228" r="15" />
      <circle id="n33" cx="449" cy="267" r="15" />
    </g>

    <g id="c4">
      <circle id="n40" cx="199" cy="129" r="11" />
      <circle id="n41" cx="183" cy="93"  r="15" />
      <circle id="n42" cx="249" cy="125" r="20" />
      <circle id="n43" cx="238" cy="69"  r="29" />
      <circle id="n44" cx="273" cy="164" r="18" />
      <circle id="n45" cx="300" cy="92"  r="30" />
      <circle id="n46" cx="218" cy="160" r="15" />
    </g>

    <g id="c5">
      <circle id="n50" cx="26"  cy="50"  r="20" />
      <circle id="n51" cx="47"  cy="92"  r="15" />
      <circle id="n52" cx="83"  cy="164" r="20" />
      <circle id="n53" cx="112" cy="130" r="15" />
      <circle id="n54" cx="137" cy="47"  r="28" />
      <circle id="n55" cx="76"  cy="54"  r="20" />
      <circle id="n56" cx="91"  cy="96"  r="15" />
      <circle id="n57" cx="132" cy="97"  r="15" />
      <circle id="n58" cx="66"  cy="127" r="15" />
    </g>

    <g id="c6">
      <circle id="n60" cx="97"  cy="280" r="15" />
      <circle id="n61" cx="116" cy="243" r="20" />
      <circle id="n62" cx="76"  cy="246" r="15" />
      <circle id="n63" cx="92"  cy="206" r="15" />
    </g>

  </g>

</svg>
